<?xml version="1.0" encoding="iso-8859-1"?>
<!-- Generator: Adobe Illustrator 24.1.1, SVG Export Plug-In . SVG Version: 6.00 Build 0)  -->
<!DOCTYPE svg PUBLIC "-//W3C//DTD SVG 1.1//EN" "http://www.w3.org/Graphics/SVG/1.1/DTD/svg11.dtd" [
	<!ENTITY ns_extend "http://ns.adobe.com/Extensibility/1.0/">
	<!ENTITY ns_ai "http://ns.adobe.com/AdobeIllustrator/10.0/">
	<!ENTITY ns_graphs "http://ns.adobe.com/Graphs/1.0/">
	<!ENTITY ns_vars "http://ns.adobe.com/Variables/1.0/">
	<!ENTITY ns_imrep "http://ns.adobe.com/ImageReplacement/1.0/">
	<!ENTITY ns_sfw "http://ns.adobe.com/SaveForWeb/1.0/">
	<!ENTITY ns_custom "http://ns.adobe.com/GenericCustomNamespace/1.0/">
	<!ENTITY ns_adobe_xpath "http://ns.adobe.com/XPath/1.0/">
]>
<svg version="1.1" id="Capa_1" xmlns:x="&ns_extend;" xmlns:i="&ns_ai;" xmlns:graph="&ns_graphs;"
	 xmlns="http://www.w3.org/2000/svg" xmlns:xlink="http://www.w3.org/1999/xlink" x="0px" y="0px" viewBox="0 0 841.89 595.276"
	 style="enable-background:new 0 0 841.89 595.276;" xml:space="preserve">
<metadata>
	<sfw  xmlns="&ns_sfw;">
		<slices></slices>
		<sliceSourceBounds  bottomLeftOrigin="true" height="457.846" width="386.511" x="228.103" y="68.715"></sliceSourceBounds>
	</sfw>
</metadata>
<g>
	<g id="XMLID_1_">
		<g>
			<path style="fill:#E2EBEF;stroke:#E2EBEF;stroke-miterlimit:10;" d="M469.727,256.101c5.37,0,9.99,0,14.89,0
				C479.177,261.901,475.167,261.961,469.727,256.101z"/>
		</g>
		<g>
			<path style="fill:#E2EBEF;stroke:#E2EBEF;stroke-miterlimit:10;" d="M455.737,418.011c-0.02-0.03,0.04,0.1,0.04,0.1
				c-1.13-0.83-2.75-1.4-3.31-2.51c-7.17-14.31-14.37-28.61-21.2-43.09c-8.18-17.36-16.19-34.81-23.92-52.37
				c-5.37-12.19-12.14-22.74-26.16-25.83c-1.73-0.39-4.78,1.02-5.79,2.55c-1.8,2.7-2.5,6.13-3.67,9.26
				c-0.73-0.15-1.46-0.29-2.2-0.43c-2.27-8.07-4.54-16.14-7.22-25.67c-4.52,8.08-3.9,14.82,0.35,19.08
				c0.74,0.75,1.64,2.29,1.34,2.96c-2.52,5.7-0.06,10.75,1.45,16.06c0.73,2.57,0.12,5.52,0.12,8.29c-0.24-0.02-0.49-0.04-0.73-0.06
				c-0.59-2.11-1.18-4.22-1.95-6.97c-5.45,7.73-4.97,10.56,1.81,15.01c-0.11,1.55-0.35,3.09-0.29,4.62
				c0.37,9.84,0.29,19.73,1.33,29.5c1.98,18.61,4.72,37.13,6.87,55.72c0.38,3.28,0.26,7.12-1.11,10c-2.09,4.39-1.71,8.02,0.52,12.6
				c1.39-2.1,2.38-3.59,3.92-5.91c1.13,2.67,1.85,4.46,2.65,6.22c2.11,4.68,3.87,9.58,6.49,13.97c4.64,7.75,9.84,15.16,14.76,22.76
				c2.25,3.47,4.38,4.54,8.06,1.3c3.53-3.11,3.62-7.3,5.28-11c2.84-6.32,13.91-9.8,21.31-8.2c5.55,1.21,8.62-1.34,7.3-6.8
				c-1.28-5.27-3.56-10.18-10.24-10.73c-1.93-0.16-3.93-0.79-5.66-1.67c-3.03-1.55-3.29-3.57-0.63-6.01
				c2.59-2.39,4.99-4.99,7.36-7.6c4.45-4.92,17.1-4.85,19.71,0.82c3.39,7.39,10.49,11.25,14.79,17.65c0.74,1.11,2.37,1.62,3.59,2.4
				c0.57-0.37,1.13-0.74,1.69-1.11c-1.09-2.43-2.11-4.9-3.27-7.31c-2.22-4.61-4.45-9.21-6.69-13.82c-2.22-4.57-4.44-9.14-6.65-13.69
				c0-0.01,0-0.01,0.01-0.02c5.08,5.95,10.15,11.86,15.22,17.79c0.77-0.46,1.54-0.92,2.3-1.38c-4.86-11.62-9.73-23.23-14.59-34.85
				c-0.57,0.16-1.13,0.32-1.69,0.48c0.38,4.64,0.96,9.29,1.01,13.93c0.02,1.34-1.45,2.69-2.25,4.03c-0.01-0.01-0.02-0.03-0.04-0.04
				C455.757,418.031,455.747,418.021,455.737,418.011z M611.387,230.421c1.04,0.85,1.32,3.78,0.72,5.25
				c-2.54,6.29-2.71,6.22,1.18,12.13c-3.7-1.57-6.59-2.8-9.91-4.21c-0.23,0.52-0.74,1.63-1.28,2.82c-0.46-1.43-0.89-2.76-1.32-4.09
				c-0.49-0.01-0.97-0.03-1.45-0.05c-1.04,6.06-2.08,12.13-3.15,18.19c-0.09,0.56-0.24,1.43-0.6,1.58
				c-9.24,3.72-3.76,14.92-10.21,20.03c1.61,5.03,2.17,10.76,5,14.97c9.81,14.6,5.53,30.69,6,46.28c0.12,3.95-0.01,7.98-0.73,11.85
				c-0.84,4.53-2.64,8.88-3.69,13.39c-1.51,6.47-3.66,12.99-3.83,19.54c-0.25,9.75,1.69,19.56,1.38,29.31
				c-0.23,7.34-2.95,14.57-3.82,21.94c-2.31,19.8-4.72,39.61-6.09,59.49c-0.62,8.99,1.12,18.14,1.78,27.22
				c-73.03,0-146.06,0-219.1,0c0.87-3.51,0.35-6.09-2.87-8.7c-10.65-8.62-12.5-16.36-8.29-29.62c0.73-2.31,1.01-5.01,0.64-7.39
				c-2.01-12.95,2.59-25.13,4.05-37.66c1.86-15.92,4.19-31.81,5.34-47.78c0.35-4.89-1.72-10.42-4.06-14.94
				c-5.98-11.62-12.64-22.89-19.29-34.15c-1.07-1.82-3.38-4.04-5.2-4.13c-16.58-0.75-28.95-9.14-40.39-20.28
				c-4.8-4.68-11.55-7.3-17.07-11.32c-5.68-4.14-11.03-8.77-16.33-13.4c-0.97-0.85-1.05-2.73-1.92-5.26
				c8.95,1.75,17.16,2.41,24.67,5.05c10.17,3.56,16.66-1.88,23.05-7.62c4.6-4.13,8.3-9.27,13.46-13.4c-0.99,2.16-2.13,4.27-2.95,6.5
				c-0.75,2.04-1.15,4.2-1.71,6.31c0.76,0.33,1.52,0.66,2.28,0.99c1.75-3.33,3.5-6.65,5.25-9.98c0.6,0.01,1.2,0.03,1.79,0.04
				c-0.19,3.32,0.72,7.3-0.79,9.84c-4.19,7.08-9.36,13.58-14.22,20.26c-1.36,1.88-2.97,3.58-4.2,5.05
				c-2.32,0.15-4.93,0.32-7.53,0.49c0.05,0.54,0.11,1.08,0.16,1.61c5.16,2.17,10.2,4.7,15.53,6.28c1.52,0.45,4.09-1.57,5.79-2.94
				c11.06-8.98,16.63-20.79,17.72-34.89c0.16-2.09,0.96-4.13,2.75-6.21c0,1.44,0.08,2.88-0.01,4.3c-0.47,7.52-3.76,15.06,1.25,22.5
				c0.86,1.28-1.05,4.7-2.09,6.94c-2.02,4.35-4.54,8.48-6.36,12.91c-0.45,1.09,0.99,2.96,1.56,4.47c1.85-0.86,4.76-1.26,5.38-2.67
				c3.87-8.72,8.48-17.42,10.38-26.63c1.79-8.72,1.59-18.22,0.33-27.1c-1.19-8.35-4.47-9.29-12.16-6.37
				c-3.44-7.88-3.75-7.87-11.3,0.41c-0.43-2.35-0.8-4.4-1.15-6.35c-2.33,0.17-4.55,0.32-8.02,0.57c-1.6,8.09-7.77,13.93-17.05,17.42
				c3.53-5.74,10.66-9.26,9.98-16.78c-0.93-0.81-1.85-1.62-2.78-2.44c-1.4,2.37-2.29,5.38-4.3,6.99
				c-7.37,5.9-15.01,11.49-22.78,16.86c-1.96,1.35-4.91,2.3-7.2,1.98c-9.52-1.33-19.23-2.32-28.35-5.14
				c-10.39-3.22-16.84-15.74-13.97-26.01c2.59,1.74,5.24,2.91,7.06,4.85c10.03,10.67,21.83,17.83,36.51,20.2
				c4.13,0.66,6.78-0.22,9.22-3.41c1.9-2.48,4.23-4.63,6.36-7.98c-13.03,6.35-25.54,9.72-35.84-4.68
				c11.3,2.41,22.62,5.54,34.24-2.92c-5.32-1.3-9.86-2.41-14.41-3.51c10.28-3.69,22.28-0.45,31.95-8.21
				c-1.4-1.29-2.75-2.54-3.53-3.26c12.98-9.97,25.98-19.97,38.99-29.96c0.24,0.28,0.49,0.56,0.73,0.84
				c-0.94,1.49-1.87,2.98-2.81,4.47c-0.13,0.04-0.26,0.09-0.39,0.13c0.04,0.08,0.07,0.16,0.1,0.24c-5.97,4.21-11.92,8.41-17.99,12.7
				c5.5,4.95,10,9.71,15.24,13.45c3.28,2.35,8.54,5.31,11.37,4.16c4.73-1.91,8.24-6.88,12.23-10.61c0.06-0.06-0.35-0.64-0.57-1.05
				c-4.66-0.77-9.31-1.55-15.78-2.62c-0.13-1.68-0.39-4.9-0.64-8.12c0.67-0.29,1.33-0.58,2-0.88c-1.29-0.9-2.85-1.58-3.8-2.76
				c-0.97-1.19-1.41-2.8-2.06-4.27c0.03-0.02,0.07-0.05,0.1-0.07c0.06-0.1,0.13-0.2,0.19-0.3c6.74-2.27,7.1-4.43,2.15-9.74
				c3.4-1.8,7-3.46,10.34-5.54c13.94-8.7,27.83-17.51,41.7-26.34c3.8-2.42,7.29-5.41,11.26-7.5c3.97-2.09,8.36-3.38,13.94-5.57
				c-1.11-0.6-2.8-1.51-4.77-2.58c20.99,4.97,40.74,2.65,60.43-3.29c4.79-1.44,10.08-1.16,15.13-1.8c8.94-1.13,17.84-2.65,26.8-3.44
				c4.79-0.42,9.7,0.59,14.54,0.48c2.2-0.05,6.55-11.39-1.4-9.22c-4.24,1.15-8.98,1.27-13.4,0.82c-16.31-1.65-32.57-3.84-48.88-5.62
				c-16.73-1.83-33.46-3.94-50.25-4.85c-5.85-0.31-12.07,2.05-17.76,4.17c-9.27,3.44-18.24,7.68-28,11.86
				c-1.52-2.07-3.3-4.5-5.95-8.11c3.77,0,5.63,0,6.83,0c2.2-2.41,4.03-4.43,6.3-6.91c-0.25-1.86-0.69-5.04-1.12-8.21
				c0.8-0.18,1.59-0.35,2.39-0.52c0.79,2.55,1.57,5.09,2.64,8.55c3.22-5.06,6.17-9.68,9.07-14.23c-0.94-3.51-1.96-7.28-3.12-11.59
				c6.48,0.45,11.4,0.79,16.76,1.17c0-3.66-0.41-6.28,0.11-8.68c0.56-2.57,1.32-5.93,3.18-7.22c7.17-4.95,14.27-10.49,23.66-10.54
				c3.08-0.01,5.56-0.13,5.02-4.48c-0.11-0.89,2.19-2.4,3.62-3.13c4.83-2.44,9.65-5.01,14.72-6.85c3.41-1.23,7.23-1.31,11.07-1.93
				c-0.17,2.24-0.32,4.31-0.51,6.88c6.1-3.53,10.3-9.37,18.25-7.6c7.06,1.57,15.45-1.32,20.61,7.48c1.02-1.53,1.9-2.86,3.62-5.44
				c0.46,2.96,0.75,4.88,1.1,7.12c2.52-0.62,5.78-1.41,9.53-2.32c-0.05,1.06-0.1,2.2-0.16,3.62c1.42-0.15,2.84-0.3,4.38-0.47
				c0,1.91,0,3.46,0,5c1.84-0.14,3.69-0.48,5.51-0.37c3.26,0.19,6.5,0.95,9.75,0.95c5.09,0,10.18-0.36,15.27-0.73
				c2.86-0.21,5.46-0.89,5.76,3.54c0.15,2.18,1.6,4.44,2.98,6.28c0.57,0.76,2.49,0.5,4.8,0.86c0,0.02,0.38,1.64,1.38,2.23
				c4.89,2.94,5.28,8.54,7.74,12.85c2.45,4.31,4.96,5.83,8.63,3.76c3.42,1.86,6.47,3.52,10.28,5.6c-0.09,0.59-0.42,2.69-0.78,5.05
				c1.12-0.22,2.16-0.42,3.19-0.61c0.46,0.35,0.92,0.7,1.39,1.06c-2.46,3.62-4.92,7.25-7.44,10.97c0.63,0.36,2.37,1.35,3.3,1.88
				c3.24-0.73,7.26-2.54,8-1.64c1.85,2.25,3.07,5.73,3.02,8.7c-0.1,7.82,0.05,15.43,2.71,22.98c0.77,2.18-0.22,5.54-1.49,7.74
				c-2.03,3.55-4.84,6.68-7.55,9.79c-3.5,4.03-2.95,6.6,2.11,8.66c2.93,1.18,5.85,2.36,9.82,3.97c0-0.58,0.47,1.06-0.08,1.52
				c-2.79,2.37-1.42,4.33-0.01,6.7c2.16,3.6,3.22,6.8,0.32,11.33C608.027,221.001,606.467,226.401,611.387,230.421z
				 M592.467,321.101c-0.39-4.46-0.62-7.53-0.93-10.59c-0.17-1.68-0.08-4.55-0.8-4.78c-1.62-0.54-3.8-0.1-5.5,0.57
				c-1.8,0.7-3.34,2.08-4.95,3.24c-12.39,8.94-26.28,13.84-41.29,16.49c-9.93,1.75-19.94,3.64-27.58,11.77
				c-3.71,3.94-4.78,6.1-0.19,9.74c3.15,2.5,2.64,8.09-0.49,8.2c-5.49,0.19-4.59,3.85-5,6.91c-0.49,3.73-0.82,7.49-0.97,11.25
				c-0.54,13.6-1.25,27.21-1.29,40.81c-0.01,3.88-0.3,9.32,5.88,9.94c6.5,0.65,13.02,1.14,19.54,1.37
				c6.76,0.24,11.71-3.13,13.57-9.46c3.47-11.75,7.44-23.54,9.03-35.6c2.3-17.37,8.59-30.93,25.66-37.99c2.17-0.89,4.07-3.67,5-6.02
				c1.37-3.43,1.99-7.23,2.48-10.94C585.217,321.621,586.277,318.321,592.467,321.101z M552.267,520.931
				c8.69-22.69,0.76-44.94-1.1-67.34C544.437,476.181,544.647,498.631,552.267,520.931z M520.087,220.531
				c0.51-4.14-0.7-8.53-1.32-12.78c-0.46-3.1-1.96-4.47-5.42-3.21c-2.1,0.76-4.59,0.98-6.83,0.75c-6.55-0.64-13.07-1.62-19.75-2.5
				c-0.55,1.68-1.17,3.57-1.78,5.46c-0.64,0.02-1.28,0.04-1.92,0.06c-0.9-5.27-1.63-10.58-2.77-15.8c-0.45-2.05-1.55-4.11-2.89-5.72
				c-0.58-0.71-2.51-0.28-3.83-0.37c-0.02,2.02-0.4,4.12,0.01,6.05c1.5,7.16-0.52,12.27-6.47,14.85c-0.78-1.42-1.58-2.87-2.06-3.75
				c-9.33,0.63-18.07,1.22-25.87,1.75c-10.68,8.76-5.08,17.41-1.22,26.08c0.16,0.36,0.45,0.79,0.37,1.11
				c-0.57,2.31-0.49,5.63-1.99,6.68c-3.97,2.78-3.74,5.92-2.86,9.88c3.47,15.5,26.54,32.05,40.67,31.64
				c5.03-0.14,10.51-0.61,14.95-2.71c12.22-5.77,21.76-14.95,25.74-28.06C517.727,240.471,518.867,230.421,520.087,220.531z
				 M501.437,319.501c0.74-0.56,0.74-2.12,1.12-3.33c-0.35-0.91-0.76-2.59-1.03-2.59c-4.86,0.36-9.73,0.82-14.54,1.55
				c-1.16,0.17-2.71,1.19-3.14,2.21c-1.48,3.55,6.01,12.82,9.81,12.1c1.35-0.25,3.69-1.91,3.56-2.41
				C496.167,322.951,498.867,321.431,501.437,319.501z M498.667,414.681c0.45-17.2,0.98-34.41,1.06-51.62
				c0-1.64-2.68-4.35-4.52-4.75c-6.16-1.35-12.49-2-18.79-2.65c-1.97-0.21-4.03,0.41-6.05,0.65c0.66,1.92,1.1,3.95,2.02,5.73
				c2.91,5.6,6.01,11.1,9.03,16.64c-0.64,0.48-1.27,0.95-1.9,1.43c-8.75-2.03-13.25-10.45-20.39-15.68
				c-1.93,15.05,19.9,44.56,38.62,52.78C498.167,416.101,498.647,415.401,498.667,414.681z M487.137,348.671
				c5.81-0.48,12.36-0.13,15.8-8.43c-10.33,2.89-18.55-0.7-26.64-4.36c-4.8-2.17-8.91-1.52-13.31,0.86
				C468.027,344.641,477.587,349.471,487.137,348.671z M487.177,329.391c-2.18-1.57-2.99-2.29-3.91-2.8
				c-13.1-7.25-26.1-14.67-39.39-21.53c-3.1-1.61-7.23-1.7-10.85-1.55c-1.05,0.04-3.19,4.47-2.75,4.93
				c3.4,3.63,6.82,8.56,11.16,9.76c12.79,3.54,25.73,6.61,38.44,10.49C481.657,329.241,483.647,329.081,487.177,329.391z
				 M452.347,365.631c-0.37-4.32-0.71-8.65-1.12-12.96c-0.03-0.34-0.46-0.63-0.68-0.96c-7.96-11.76-15.74-23.66-24.01-35.21
				c-2.05-2.87-5.37-5.31-8.63-6.71c-3.6-1.54-7.81-1.66-12.62-2.56c3.22,7.57,5.85,15.33,9.7,22.42
				c6.9,12.67,19.06,20.76,28.68,31.07C445.827,363.041,449.417,364.031,452.347,365.631z M450.337,407.001
				c5.59-22.74-5.39-36.5-18.21-44.62c-0.69,0.33-1.37,0.66-2.05,0.99C436.827,377.921,443.577,392.461,450.337,407.001z"/>
			<path style="fill:none;" d="M484.617,256.101c-4.9,0-9.52,0-14.89,0C475.167,261.961,479.177,261.901,484.617,256.101z
				 M458.457,249.131c5.19,4.52,29.51,5.46,35.47,1.37C486.897,240.591,468.457,239.881,458.457,249.131z"/>
			<path style="fill:#E9E9E9;stroke:#E9E9E9;stroke-miterlimit:10;" d="M493.927,250.501c-5.96,4.09-30.28,3.15-35.47-1.37
				C468.457,239.881,486.897,240.591,493.927,250.501z"/>
		</g>
	</g>
</g>
</svg>
